<svg width="15" height="15" viewBox="0 0 15 15" fill="none" xmlns="http://www.w3.org/2000/svg">
<path d="M8.83615 5.15621L8.72275 5.75H9.32727H13.6364C13.8492 5.75 14.0642 5.84258 14.2306 6.02568C14.3985 6.21036 14.5 6.47022 14.5 6.75V8.25C14.5 8.382 14.4777 8.50346 14.4357 8.62352L12.3795 13.9036L12.3795 13.9036L12.3779 13.9079C12.237 14.2799 11.9222 14.5 11.5909 14.5H5.45455C5.24171 14.5 5.02673 14.4074 4.86028 14.2243C4.69239 14.0396 4.59091 13.7798 4.59091 13.5V6C4.59091 5.70996 4.69584 5.45539 4.86315 5.27134L8.9813 0.741379L9.3323 1.12384C9.33253 1.12408 9.33275 1.12433 9.33298 1.12458C9.43241 1.23436 9.50227 1.39886 9.50227 1.5825C9.50227 1.63801 9.49765 1.68958 9.49022 1.73119L8.83615 5.15621ZM2.22727 6.5V14.5H0.5V6.5H2.22727Z" fill="white" stroke="#343A40"/>
</svg>
