<?xml version="1.0" standalone="no"?>
<!DOCTYPE svg PUBLIC "-//W3C//DTD SVG 20010904//EN"
 "http://www.w3.org/TR/2001/REC-SVG-20010904/DTD/svg10.dtd">
<svg version="1.0" xmlns="http://www.w3.org/2000/svg"
 width="23pt" height="23pt" viewBox="0 0 512.000000 512.000000"
 preserveAspectRatio="xMidYMid meet">

<g transform="translate(0.000000,512.000000) scale(0.100000,-0.100000)"
fill="#000000" stroke="none">
<path d="M1725 4109 c-162 -17 -346 -88 -480 -184 -73 -52 -197 -180 -246
-255 -235 -357 -222 -824 32 -1160 32 -41 376 -393 766 -783 l709 -707 54 0
55 0 721 722 c467 469 736 745 763 786 64 95 118 216 147 327 22 82 26 124 27
235 2 182 -26 305 -104 464 -137 277 -409 478 -721 532 -122 21 -300 15 -418
-15 -118 -30 -288 -116 -388 -196 l-83 -66 -67 57 c-113 96 -212 153 -342 196
-130 44 -292 62 -425 47z m1714 -265 c138 -31 274 -107 381 -214 231 -231 286
-560 141 -855 -22 -44 -62 -109 -89 -145 -28 -36 -334 -348 -681 -695 l-631
-630 -646 645 c-355 355 -665 673 -690 707 -52 72 -95 163 -120 254 -25 89
-25 289 0 378 63 230 208 402 427 506 108 51 200 68 339 62 216 -9 394 -92
560 -261 106 -108 153 -109 255 -5 226 230 477 314 754 253z"/>
</g>
</svg>
